<!DOCTYPE svg PUBLIC "-//W3C//DTD SVG 1.1//EN" "http://www.w3.org/Graphics/SVG/1.1/DTD/svg11.dtd">
<!-- Uploaded to: SVG Repo, www.svgrepo.com, Transformed by: SVG Repo Mixer Tools -->
<svg fill="#ff8b1f" width="800px" height="800px" viewBox="0 0 24 24" xmlns="http://www.w3.org/2000/svg">
<g id="SVGRepo_bgCarrier" stroke-width="0"/>
<g id="SVGRepo_tracerCarrier" stroke-linecap="round" stroke-linejoin="round"/>
<g id="SVGRepo_iconCarrier">
<path d="M20,7H12.309a.5.5,0,0,1-.447-.276L10.276,3.553A1,1,0,0,0,9.382,3H4A1,1,0,0,0,3,4V20a1,1,0,0,0,1,1H20a1,1,0,0,0,1-1V8A1,1,0,0,0,20,7Zm-4.793,8.793a1,1,0,1,1-1.414,1.414L12,15.414l-1.793,1.793a1,1,0,0,1-1.414-1.414L10.586,14,8.793,12.207a1,1,0,0,1,1.414-1.414L12,12.586l1.793-1.793a1,1,0,0,1,1.414,1.414L13.414,14Z"/>
</g>
</svg>