<!DOCTYPE svg PUBLIC "-//W3C//DTD SVG 1.1//EN" "http://www.w3.org/Graphics/SVG/1.1/DTD/svg11.dtd">
<!-- Uploaded to: SVG Repo, www.svgrepo.com, Transformed by: SVG Repo Mixer Tools -->
<svg width="800px" height="800px" viewBox="-0.01 0 20.026 20.026" xmlns="http://www.w3.org/2000/svg" fill="#ffac38" stroke="#ffac38">
<g id="SVGRepo_bgCarrier" stroke-width="0"/>
<g id="SVGRepo_tracerCarrier" stroke-linecap="round" stroke-linejoin="round"/>
<g id="SVGRepo_iconCarrier"> <g id="add-user-left-8" transform="translate(-2 -1.974)"> <path id="secondary" fill="#ff941a" d="M11,17a6,6,0,0,0-3.4-5.4A6,6,0,1,1,19,9a5.94,5.94,0,0,1-1.34,3.77,1,1,0,0,0,.28,1.45A7,7,0,0,1,21,20a1,1,0,0,1-1,1H9.46A5.93,5.93,0,0,0,11,17Z"/> <path id="primary" d="M3,17H7M5,19V15" fill="none" stroke="#000000" stroke-linecap="round" stroke-linejoin="round" stroke-width="2"/> <path id="primary-2" data-name="primary" d="M7.35,11a5.9,5.9,0,0,1-.27-3A6,6,0,0,1,19,9a5.94,5.94,0,0,1-1.34,3.77,1,1,0,0,0,.28,1.45A7,7,0,0,1,21,20a1,1,0,0,1-1,1H9" fill="none" stroke="#000000" stroke-linecap="round" stroke-linejoin="round" stroke-width="2"/> </g> </g>
</svg>