<!DOCTYPE svg PUBLIC "-//W3C//DTD SVG 1.1//EN" "http://www.w3.org/Graphics/SVG/1.1/DTD/svg11.dtd">
<!-- Uploaded to: SVG Repo, www.svgrepo.com, Transformed by: SVG Repo Mixer Tools -->
<svg width="800px" height="800px" viewBox="0 -0.14 20.436 20.436" xmlns="http://www.w3.org/2000/svg" fill="#000000">
<g id="SVGRepo_bgCarrier" stroke-width="0"/>
<g id="SVGRepo_tracerCarrier" stroke-linecap="round" stroke-linejoin="round"/>
<g id="SVGRepo_iconCarrier"> <g id="delete-user-circle" transform="translate(-1.979 -2)"> <path id="secondary" fill="#ff8b1f" d="M7,19.5a9,9,0,0,0,9.94,0A5,5,0,0,0,7,19.5Z"/> <path id="primary" d="M21,10.5l-3-3m3,0-3,3M12,15a5,5,0,0,0-5,4.5,9,9,0,0,0,9.94,0A5,5,0,0,0,12,15Z" fill="none" stroke="#ff8b1f" stroke-linecap="round" stroke-linejoin="round" stroke-width="2"/> <path id="primary-2" data-name="primary" d="M14,7.53A4.09,4.09,0,0,0,12,7a4,4,0,1,0,3,6.64" fill="none" stroke="#ff8b1f" stroke-linecap="round" stroke-linejoin="round" stroke-width="2"/> <path id="primary-3" data-name="primary" d="M20.48,15a8.86,8.86,0,0,1-2.12,3.36A9,9,0,1,1,12,3a8.8,8.8,0,0,1,3,.52" fill="none" stroke="#ff8b1f" stroke-linecap="round" stroke-linejoin="round" stroke-width="2"/> </g> </g>
</svg>